<mxfile host="app.diagrams.net" modified="2023-05-08T08:01:17.212Z" agent="Mozilla/5.0 (Windows NT 10.0; Win64; x64) AppleWebKit/537.36 (KHTML, like Gecko) Chrome/112.0.0.0 Safari/537.36 Edg/112.0.1722.68" etag="ZJfE19Hyj-rPEU7ikAQC" version="21.2.9" type="github">
  <diagram name="第 1 页" id="gWeG35e6C86zQD0y6pNc">
    <mxGraphModel dx="1101" dy="591" grid="0" gridSize="10" guides="1" tooltips="1" connect="1" arrows="1" fold="1" page="1" pageScale="1" pageWidth="2336" pageHeight="1654" math="0" shadow="0">
      <root>
        <mxCell id="0" />
        <mxCell id="1" parent="0" />
        <mxCell id="u9Ba9--OEbl625sA4hoY-62" value="" style="rounded=1;whiteSpace=wrap;html=1;dashed=1;fillColor=none;glass=0;" parent="1" vertex="1">
          <mxGeometry x="301" y="551" width="641" height="440" as="geometry" />
        </mxCell>
        <mxCell id="XD2-V8QEW1LzV1P3F_-f-185" value="" style="rounded=1;whiteSpace=wrap;html=1;dashed=1;" parent="1" vertex="1">
          <mxGeometry x="372" y="663" width="126" height="303" as="geometry" />
        </mxCell>
        <mxCell id="XD2-V8QEW1LzV1P3F_-f-189" value="" style="rounded=1;whiteSpace=wrap;html=1;fillStyle=solid;gradientColor=default;fillColor=none;dashed=1;dashPattern=1 2;" parent="1" vertex="1">
          <mxGeometry x="374" y="864" width="255" height="106" as="geometry" />
        </mxCell>
        <mxCell id="XD2-V8QEW1LzV1P3F_-f-60" style="edgeStyle=orthogonalEdgeStyle;rounded=0;orthogonalLoop=1;jettySize=auto;html=1;entryX=0.5;entryY=1;entryDx=0;entryDy=0;" parent="1" source="XD2-V8QEW1LzV1P3F_-f-20" target="XD2-V8QEW1LzV1P3F_-f-57" edge="1">
          <mxGeometry relative="1" as="geometry" />
        </mxCell>
        <mxCell id="XD2-V8QEW1LzV1P3F_-f-20" value="HSAA" style="rounded=1;whiteSpace=wrap;html=1;fillColor=#dae8fc;strokeColor=#6c8ebf;" parent="1" vertex="1">
          <mxGeometry x="380.87" y="598" width="546.13" height="30" as="geometry" />
        </mxCell>
        <mxCell id="XD2-V8QEW1LzV1P3F_-f-46" style="edgeStyle=orthogonalEdgeStyle;rounded=0;orthogonalLoop=1;jettySize=auto;html=1;entryX=0.5;entryY=1;entryDx=0;entryDy=0;" parent="1" target="XD2-V8QEW1LzV1P3F_-f-45" edge="1">
          <mxGeometry relative="1" as="geometry">
            <mxPoint x="434.28571428571433" y="809" as="sourcePoint" />
          </mxGeometry>
        </mxCell>
        <mxCell id="XD2-V8QEW1LzV1P3F_-f-21" value="HSAA" style="rounded=1;whiteSpace=wrap;html=1;fillColor=#dae8fc;strokeColor=#6c8ebf;" parent="1" vertex="1">
          <mxGeometry x="382.5" y="809" width="111.63" height="30" as="geometry" />
        </mxCell>
        <mxCell id="XD2-V8QEW1LzV1P3F_-f-55" style="edgeStyle=orthogonalEdgeStyle;rounded=0;orthogonalLoop=1;jettySize=auto;html=1;entryX=0;entryY=0.5;entryDx=0;entryDy=0;" parent="1" target="XD2-V8QEW1LzV1P3F_-f-21" edge="1">
          <mxGeometry relative="1" as="geometry">
            <Array as="points">
              <mxPoint x="341" y="824" />
            </Array>
            <mxPoint x="340.9655172413793" y="871" as="sourcePoint" />
          </mxGeometry>
        </mxCell>
        <mxCell id="XD2-V8QEW1LzV1P3F_-f-62" style="edgeStyle=orthogonalEdgeStyle;rounded=0;orthogonalLoop=1;jettySize=auto;html=1;dashed=1;dashPattern=1 2;" parent="1" target="XD2-V8QEW1LzV1P3F_-f-63" edge="1">
          <mxGeometry relative="1" as="geometry">
            <mxPoint x="317" y="602.0344827586208" as="targetPoint" />
            <Array as="points">
              <mxPoint x="275" y="901" />
              <mxPoint x="275" y="576" />
            </Array>
            <mxPoint x="317" y="901.5172413793105" as="sourcePoint" />
          </mxGeometry>
        </mxCell>
        <mxCell id="XD2-V8QEW1LzV1P3F_-f-56" style="edgeStyle=orthogonalEdgeStyle;rounded=0;orthogonalLoop=1;jettySize=auto;html=1;entryX=0;entryY=0.5;entryDx=0;entryDy=0;exitX=0.481;exitY=0.006;exitDx=0;exitDy=0;exitPerimeter=0;" parent="1" target="XD2-V8QEW1LzV1P3F_-f-20" edge="1">
          <mxGeometry relative="1" as="geometry">
            <Array as="points">
              <mxPoint x="341" y="613" />
            </Array>
            <mxPoint x="341.04999999999995" y="871.366" as="sourcePoint" />
          </mxGeometry>
        </mxCell>
        <mxCell id="u9Ba9--OEbl625sA4hoY-119" style="edgeStyle=orthogonalEdgeStyle;rounded=0;orthogonalLoop=1;jettySize=auto;html=1;entryX=0.5;entryY=1;entryDx=0;entryDy=0;" parent="1" source="XD2-V8QEW1LzV1P3F_-f-45" target="u9Ba9--OEbl625sA4hoY-112" edge="1">
          <mxGeometry relative="1" as="geometry" />
        </mxCell>
        <mxCell id="XD2-V8QEW1LzV1P3F_-f-45" value="FFN" style="rounded=1;whiteSpace=wrap;html=1;" parent="1" vertex="1">
          <mxGeometry x="405.82" y="775" width="57" height="22" as="geometry" />
        </mxCell>
        <mxCell id="XD2-V8QEW1LzV1P3F_-f-52" value="" style="endArrow=classic;html=1;rounded=0;exitX=0.217;exitY=-0.001;exitDx=0;exitDy=0;exitPerimeter=0;entryX=0.174;entryY=0.976;entryDx=0;entryDy=0;entryPerimeter=0;" parent="1" target="XD2-V8QEW1LzV1P3F_-f-21" edge="1">
          <mxGeometry width="50" height="50" relative="1" as="geometry">
            <mxPoint x="401.95500000000004" y="870.9390000000001" as="sourcePoint" />
            <mxPoint x="473" y="832" as="targetPoint" />
          </mxGeometry>
        </mxCell>
        <mxCell id="XD2-V8QEW1LzV1P3F_-f-53" value="" style="endArrow=classic;html=1;rounded=0;exitX=0.75;exitY=0;exitDx=0;exitDy=0;entryX=0.725;entryY=0.998;entryDx=0;entryDy=0;entryPerimeter=0;" parent="1" target="XD2-V8QEW1LzV1P3F_-f-21" edge="1">
          <mxGeometry width="50" height="50" relative="1" as="geometry">
            <mxPoint x="463.25" y="871" as="sourcePoint" />
            <mxPoint x="447" y="816" as="targetPoint" />
          </mxGeometry>
        </mxCell>
        <mxCell id="XD2-V8QEW1LzV1P3F_-f-66" style="edgeStyle=orthogonalEdgeStyle;rounded=0;orthogonalLoop=1;jettySize=auto;html=1;entryX=1;entryY=0.5;entryDx=0;entryDy=0;" parent="1" source="XD2-V8QEW1LzV1P3F_-f-57" target="XD2-V8QEW1LzV1P3F_-f-63" edge="1">
          <mxGeometry relative="1" as="geometry">
            <Array as="points">
              <mxPoint x="494.87" y="576" />
              <mxPoint x="418.87" y="576" />
            </Array>
          </mxGeometry>
        </mxCell>
        <mxCell id="XD2-V8QEW1LzV1P3F_-f-57" value="FFN" style="rounded=1;whiteSpace=wrap;html=1;" parent="1" vertex="1">
          <mxGeometry x="466.68" y="563" width="57" height="22" as="geometry" />
        </mxCell>
        <mxCell id="u9Ba9--OEbl625sA4hoY-222" style="edgeStyle=orthogonalEdgeStyle;rounded=0;orthogonalLoop=1;jettySize=auto;html=1;entryX=0.6;entryY=0.995;entryDx=0;entryDy=0;entryPerimeter=0;" parent="1" source="XD2-V8QEW1LzV1P3F_-f-63" edge="1">
          <mxGeometry relative="1" as="geometry">
            <mxPoint x="353.5" y="502.54999999999995" as="targetPoint" />
          </mxGeometry>
        </mxCell>
        <mxCell id="XD2-V8QEW1LzV1P3F_-f-63" value="" style="ellipse;whiteSpace=wrap;html=1;aspect=fixed;" parent="1" vertex="1">
          <mxGeometry x="335.87" y="558" width="35" height="35" as="geometry" />
        </mxCell>
        <mxCell id="XD2-V8QEW1LzV1P3F_-f-64" value="" style="endArrow=none;html=1;rounded=0;entryX=0.5;entryY=0;entryDx=0;entryDy=0;exitX=0.5;exitY=1;exitDx=0;exitDy=0;" parent="1" source="XD2-V8QEW1LzV1P3F_-f-63" target="XD2-V8QEW1LzV1P3F_-f-63" edge="1">
          <mxGeometry width="50" height="50" relative="1" as="geometry">
            <mxPoint x="394.87" y="653" as="sourcePoint" />
            <mxPoint x="444.87" y="603" as="targetPoint" />
          </mxGeometry>
        </mxCell>
        <mxCell id="XD2-V8QEW1LzV1P3F_-f-65" value="" style="endArrow=none;html=1;rounded=0;exitX=1;exitY=0.5;exitDx=0;exitDy=0;entryX=0;entryY=0.5;entryDx=0;entryDy=0;" parent="1" source="XD2-V8QEW1LzV1P3F_-f-63" target="XD2-V8QEW1LzV1P3F_-f-63" edge="1">
          <mxGeometry width="50" height="50" relative="1" as="geometry">
            <mxPoint x="363.87" y="603" as="sourcePoint" />
            <mxPoint x="363.87" y="568" as="targetPoint" />
          </mxGeometry>
        </mxCell>
        <mxCell id="XD2-V8QEW1LzV1P3F_-f-184" value="Relu" style="text;html=1;align=center;verticalAlign=middle;resizable=0;points=[];autosize=1;strokeColor=none;fillColor=none;" parent="1" vertex="1">
          <mxGeometry x="315" y="525" width="43" height="26" as="geometry" />
        </mxCell>
        <mxCell id="u9Ba9--OEbl625sA4hoY-2" value="" style="endArrow=classic;html=1;rounded=0;exitX=0.75;exitY=0;exitDx=0;exitDy=0;" parent="1" edge="1">
          <mxGeometry width="50" height="50" relative="1" as="geometry">
            <mxPoint x="533.83" y="871" as="sourcePoint" />
            <mxPoint x="534" y="629" as="targetPoint" />
          </mxGeometry>
        </mxCell>
        <mxCell id="u9Ba9--OEbl625sA4hoY-3" value="" style="endArrow=classic;html=1;rounded=0;exitX=0.75;exitY=0;exitDx=0;exitDy=0;" parent="1" edge="1">
          <mxGeometry width="50" height="50" relative="1" as="geometry">
            <mxPoint x="597.9200000000001" y="872" as="sourcePoint" />
            <mxPoint x="598" y="630" as="targetPoint" />
          </mxGeometry>
        </mxCell>
        <mxCell id="u9Ba9--OEbl625sA4hoY-118" style="edgeStyle=orthogonalEdgeStyle;rounded=0;orthogonalLoop=1;jettySize=auto;html=1;entryX=0.098;entryY=1.005;entryDx=0;entryDy=0;entryPerimeter=0;" parent="1" source="u9Ba9--OEbl625sA4hoY-112" target="XD2-V8QEW1LzV1P3F_-f-20" edge="1">
          <mxGeometry relative="1" as="geometry" />
        </mxCell>
        <mxCell id="u9Ba9--OEbl625sA4hoY-112" value="" style="rounded=1;whiteSpace=wrap;html=1;" parent="1" vertex="1">
          <mxGeometry x="409.32" y="673" width="50" height="90" as="geometry" />
        </mxCell>
        <mxCell id="u9Ba9--OEbl625sA4hoY-113" value="" style="rounded=1;whiteSpace=wrap;html=1;fillColor=#f8cecc;strokeColor=#b85450;" parent="1" vertex="1">
          <mxGeometry x="413.69" y="741" width="41" height="14" as="geometry" />
        </mxCell>
        <mxCell id="u9Ba9--OEbl625sA4hoY-114" value="" style="rounded=1;whiteSpace=wrap;html=1;fillColor=#fff2cc;strokeColor=#d6b656;" parent="1" vertex="1">
          <mxGeometry x="413.69" y="678" width="41" height="21" as="geometry" />
        </mxCell>
        <mxCell id="u9Ba9--OEbl625sA4hoY-115" value="" style="rounded=1;whiteSpace=wrap;html=1;fillColor=#f8cecc;strokeColor=#b85450;" parent="1" vertex="1">
          <mxGeometry x="413.82" y="722" width="41" height="14" as="geometry" />
        </mxCell>
        <mxCell id="u9Ba9--OEbl625sA4hoY-116" value="" style="rounded=1;whiteSpace=wrap;html=1;fillColor=#f8cecc;strokeColor=#b85450;" parent="1" vertex="1">
          <mxGeometry x="413.82" y="703" width="41" height="14" as="geometry" />
        </mxCell>
        <mxCell id="u9Ba9--OEbl625sA4hoY-120" value="" style="rounded=1;whiteSpace=wrap;html=1;" parent="1" vertex="1">
          <mxGeometry x="315" y="869" width="50" height="90" as="geometry" />
        </mxCell>
        <mxCell id="u9Ba9--OEbl625sA4hoY-121" value="" style="rounded=1;whiteSpace=wrap;html=1;fillColor=#f8cecc;strokeColor=#b85450;" parent="1" vertex="1">
          <mxGeometry x="319.37" y="937" width="41" height="14" as="geometry" />
        </mxCell>
        <mxCell id="u9Ba9--OEbl625sA4hoY-122" value="" style="rounded=1;whiteSpace=wrap;html=1;fillColor=#fff2cc;strokeColor=#d6b656;" parent="1" vertex="1">
          <mxGeometry x="319.37" y="874" width="41" height="21" as="geometry" />
        </mxCell>
        <mxCell id="u9Ba9--OEbl625sA4hoY-123" value="" style="rounded=1;whiteSpace=wrap;html=1;fillColor=#f8cecc;strokeColor=#b85450;" parent="1" vertex="1">
          <mxGeometry x="319.5" y="918" width="41" height="14" as="geometry" />
        </mxCell>
        <mxCell id="u9Ba9--OEbl625sA4hoY-124" value="" style="rounded=1;whiteSpace=wrap;html=1;fillColor=#f8cecc;strokeColor=#b85450;" parent="1" vertex="1">
          <mxGeometry x="319.5" y="899" width="41" height="14" as="geometry" />
        </mxCell>
        <mxCell id="u9Ba9--OEbl625sA4hoY-125" value="" style="rounded=1;whiteSpace=wrap;html=1;" parent="1" vertex="1">
          <mxGeometry x="377.5" y="869" width="115" height="91" as="geometry" />
        </mxCell>
        <mxCell id="u9Ba9--OEbl625sA4hoY-126" value="" style="endArrow=none;dashed=1;html=1;dashPattern=1 3;strokeWidth=2;rounded=0;entryX=1;entryY=0.5;entryDx=0;entryDy=0;exitX=0;exitY=0.5;exitDx=0;exitDy=0;" parent="1" edge="1">
          <mxGeometry width="50" height="50" relative="1" as="geometry">
            <mxPoint x="443.75" y="924.88" as="sourcePoint" />
            <mxPoint x="420.2499999999999" y="924.88" as="targetPoint" />
          </mxGeometry>
        </mxCell>
        <mxCell id="u9Ba9--OEbl625sA4hoY-127" value="" style="endArrow=none;dashed=1;html=1;dashPattern=1 3;strokeWidth=2;rounded=0;entryX=1;entryY=0.5;entryDx=0;entryDy=0;" parent="1" edge="1">
          <mxGeometry width="50" height="50" relative="1" as="geometry">
            <mxPoint x="443.5" y="885" as="sourcePoint" />
            <mxPoint x="419.9999999999999" y="885" as="targetPoint" />
          </mxGeometry>
        </mxCell>
        <mxCell id="u9Ba9--OEbl625sA4hoY-128" value="" style="rounded=1;whiteSpace=wrap;html=1;fillColor=#d5e8d4;strokeColor=#82b366;" parent="1" vertex="1">
          <mxGeometry x="382" y="937" width="41" height="14" as="geometry" />
        </mxCell>
        <mxCell id="u9Ba9--OEbl625sA4hoY-129" value="" style="rounded=1;whiteSpace=wrap;html=1;fillColor=#fff2cc;strokeColor=#d6b656;" parent="1" vertex="1">
          <mxGeometry x="382" y="874" width="41" height="21" as="geometry" />
        </mxCell>
        <mxCell id="u9Ba9--OEbl625sA4hoY-130" value="" style="rounded=1;whiteSpace=wrap;html=1;fillColor=#d5e8d4;strokeColor=#82b366;" parent="1" vertex="1">
          <mxGeometry x="382.13" y="918" width="41" height="14" as="geometry" />
        </mxCell>
        <mxCell id="u9Ba9--OEbl625sA4hoY-131" value="" style="rounded=1;whiteSpace=wrap;html=1;fillColor=#d5e8d4;strokeColor=#82b366;" parent="1" vertex="1">
          <mxGeometry x="382.13" y="899" width="41" height="14" as="geometry" />
        </mxCell>
        <mxCell id="u9Ba9--OEbl625sA4hoY-132" value="" style="rounded=1;whiteSpace=wrap;html=1;fillColor=#d5e8d4;strokeColor=#82b366;" parent="1" vertex="1">
          <mxGeometry x="446" y="937" width="41" height="14" as="geometry" />
        </mxCell>
        <mxCell id="u9Ba9--OEbl625sA4hoY-133" value="" style="rounded=1;whiteSpace=wrap;html=1;fillColor=#fff2cc;strokeColor=#d6b656;" parent="1" vertex="1">
          <mxGeometry x="446" y="874" width="41" height="21" as="geometry" />
        </mxCell>
        <mxCell id="u9Ba9--OEbl625sA4hoY-134" value="" style="rounded=1;whiteSpace=wrap;html=1;fillColor=#d5e8d4;strokeColor=#82b366;" parent="1" vertex="1">
          <mxGeometry x="446.13" y="918" width="41" height="14" as="geometry" />
        </mxCell>
        <mxCell id="u9Ba9--OEbl625sA4hoY-135" value="" style="rounded=1;whiteSpace=wrap;html=1;fillColor=#d5e8d4;strokeColor=#82b366;" parent="1" vertex="1">
          <mxGeometry x="446.13" y="899" width="41" height="14" as="geometry" />
        </mxCell>
        <mxCell id="u9Ba9--OEbl625sA4hoY-147" value="" style="rounded=1;whiteSpace=wrap;html=1;" parent="1" vertex="1">
          <mxGeometry x="505.5" y="869" width="115" height="91" as="geometry" />
        </mxCell>
        <mxCell id="u9Ba9--OEbl625sA4hoY-148" value="" style="endArrow=none;dashed=1;html=1;dashPattern=1 3;strokeWidth=2;rounded=0;entryX=1;entryY=0.5;entryDx=0;entryDy=0;exitX=0;exitY=0.5;exitDx=0;exitDy=0;" parent="1" edge="1">
          <mxGeometry width="50" height="50" relative="1" as="geometry">
            <mxPoint x="571.75" y="924.88" as="sourcePoint" />
            <mxPoint x="548.2499999999999" y="924.88" as="targetPoint" />
          </mxGeometry>
        </mxCell>
        <mxCell id="u9Ba9--OEbl625sA4hoY-149" value="" style="endArrow=none;dashed=1;html=1;dashPattern=1 3;strokeWidth=2;rounded=0;entryX=1;entryY=0.5;entryDx=0;entryDy=0;" parent="1" edge="1">
          <mxGeometry width="50" height="50" relative="1" as="geometry">
            <mxPoint x="571.5" y="885" as="sourcePoint" />
            <mxPoint x="547.9999999999999" y="885" as="targetPoint" />
          </mxGeometry>
        </mxCell>
        <mxCell id="u9Ba9--OEbl625sA4hoY-150" value="" style="rounded=1;whiteSpace=wrap;html=1;fillColor=#d5e8d4;strokeColor=#82b366;" parent="1" vertex="1">
          <mxGeometry x="510" y="937" width="41" height="14" as="geometry" />
        </mxCell>
        <mxCell id="u9Ba9--OEbl625sA4hoY-151" value="" style="rounded=1;whiteSpace=wrap;html=1;fillColor=#fff2cc;strokeColor=#d6b656;" parent="1" vertex="1">
          <mxGeometry x="510" y="874" width="41" height="21" as="geometry" />
        </mxCell>
        <mxCell id="u9Ba9--OEbl625sA4hoY-152" value="" style="rounded=1;whiteSpace=wrap;html=1;fillColor=#d5e8d4;strokeColor=#82b366;" parent="1" vertex="1">
          <mxGeometry x="510.13" y="918" width="41" height="14" as="geometry" />
        </mxCell>
        <mxCell id="u9Ba9--OEbl625sA4hoY-153" value="" style="rounded=1;whiteSpace=wrap;html=1;fillColor=#d5e8d4;strokeColor=#82b366;" parent="1" vertex="1">
          <mxGeometry x="510.13" y="899" width="41" height="14" as="geometry" />
        </mxCell>
        <mxCell id="u9Ba9--OEbl625sA4hoY-154" value="" style="rounded=1;whiteSpace=wrap;html=1;fillColor=#d5e8d4;strokeColor=#82b366;" parent="1" vertex="1">
          <mxGeometry x="574" y="937" width="41" height="14" as="geometry" />
        </mxCell>
        <mxCell id="u9Ba9--OEbl625sA4hoY-155" value="" style="rounded=1;whiteSpace=wrap;html=1;fillColor=#fff2cc;strokeColor=#d6b656;" parent="1" vertex="1">
          <mxGeometry x="574" y="874" width="41" height="21" as="geometry" />
        </mxCell>
        <mxCell id="u9Ba9--OEbl625sA4hoY-156" value="" style="rounded=1;whiteSpace=wrap;html=1;fillColor=#d5e8d4;strokeColor=#82b366;" parent="1" vertex="1">
          <mxGeometry x="574.13" y="918" width="41" height="14" as="geometry" />
        </mxCell>
        <mxCell id="u9Ba9--OEbl625sA4hoY-157" value="" style="rounded=1;whiteSpace=wrap;html=1;fillColor=#d5e8d4;strokeColor=#82b366;" parent="1" vertex="1">
          <mxGeometry x="574.13" y="899" width="41" height="14" as="geometry" />
        </mxCell>
        <mxCell id="u9Ba9--OEbl625sA4hoY-158" value="" style="rounded=1;whiteSpace=wrap;html=1;dashed=1;" parent="1" vertex="1">
          <mxGeometry x="664.82" y="663" width="126" height="303" as="geometry" />
        </mxCell>
        <mxCell id="u9Ba9--OEbl625sA4hoY-159" value="" style="rounded=1;whiteSpace=wrap;html=1;fillStyle=solid;gradientColor=default;fillColor=none;dashed=1;dashPattern=1 2;" parent="1" vertex="1">
          <mxGeometry x="666.82" y="864" width="255" height="106" as="geometry" />
        </mxCell>
        <mxCell id="u9Ba9--OEbl625sA4hoY-160" style="edgeStyle=orthogonalEdgeStyle;rounded=0;orthogonalLoop=1;jettySize=auto;html=1;entryX=0.5;entryY=1;entryDx=0;entryDy=0;" parent="1" target="u9Ba9--OEbl625sA4hoY-164" edge="1">
          <mxGeometry relative="1" as="geometry">
            <mxPoint x="727.1057142857144" y="809" as="sourcePoint" />
          </mxGeometry>
        </mxCell>
        <mxCell id="u9Ba9--OEbl625sA4hoY-161" value="HSAA" style="rounded=1;whiteSpace=wrap;html=1;fillColor=#dae8fc;strokeColor=#6c8ebf;" parent="1" vertex="1">
          <mxGeometry x="675.32" y="809" width="111.63" height="30" as="geometry" />
        </mxCell>
        <mxCell id="u9Ba9--OEbl625sA4hoY-163" style="edgeStyle=orthogonalEdgeStyle;rounded=0;orthogonalLoop=1;jettySize=auto;html=1;entryX=0.5;entryY=1;entryDx=0;entryDy=0;" parent="1" source="u9Ba9--OEbl625sA4hoY-164" target="u9Ba9--OEbl625sA4hoY-171" edge="1">
          <mxGeometry relative="1" as="geometry" />
        </mxCell>
        <mxCell id="u9Ba9--OEbl625sA4hoY-164" value="FFN" style="rounded=1;whiteSpace=wrap;html=1;" parent="1" vertex="1">
          <mxGeometry x="698.64" y="775" width="57" height="22" as="geometry" />
        </mxCell>
        <mxCell id="u9Ba9--OEbl625sA4hoY-165" value="" style="endArrow=classic;html=1;rounded=0;exitX=0.217;exitY=-0.001;exitDx=0;exitDy=0;exitPerimeter=0;entryX=0.174;entryY=0.976;entryDx=0;entryDy=0;entryPerimeter=0;" parent="1" target="u9Ba9--OEbl625sA4hoY-161" edge="1">
          <mxGeometry width="50" height="50" relative="1" as="geometry">
            <mxPoint x="694.7750000000001" y="870.9390000000001" as="sourcePoint" />
            <mxPoint x="765.82" y="832" as="targetPoint" />
          </mxGeometry>
        </mxCell>
        <mxCell id="u9Ba9--OEbl625sA4hoY-166" value="" style="endArrow=classic;html=1;rounded=0;exitX=0.75;exitY=0;exitDx=0;exitDy=0;entryX=0.725;entryY=0.998;entryDx=0;entryDy=0;entryPerimeter=0;" parent="1" target="u9Ba9--OEbl625sA4hoY-161" edge="1">
          <mxGeometry width="50" height="50" relative="1" as="geometry">
            <mxPoint x="756.07" y="871" as="sourcePoint" />
            <mxPoint x="739.82" y="816" as="targetPoint" />
          </mxGeometry>
        </mxCell>
        <mxCell id="u9Ba9--OEbl625sA4hoY-167" value="" style="endArrow=classic;html=1;rounded=0;exitX=0.75;exitY=0;exitDx=0;exitDy=0;" parent="1" edge="1">
          <mxGeometry width="50" height="50" relative="1" as="geometry">
            <mxPoint x="826.6500000000001" y="871" as="sourcePoint" />
            <mxPoint x="826.82" y="629" as="targetPoint" />
          </mxGeometry>
        </mxCell>
        <mxCell id="u9Ba9--OEbl625sA4hoY-168" value="" style="endArrow=classic;html=1;rounded=0;exitX=0.75;exitY=0;exitDx=0;exitDy=0;" parent="1" edge="1">
          <mxGeometry width="50" height="50" relative="1" as="geometry">
            <mxPoint x="890.7400000000001" y="872" as="sourcePoint" />
            <mxPoint x="890.82" y="630" as="targetPoint" />
          </mxGeometry>
        </mxCell>
        <mxCell id="u9Ba9--OEbl625sA4hoY-170" style="edgeStyle=orthogonalEdgeStyle;rounded=0;orthogonalLoop=1;jettySize=auto;html=1;entryX=0.098;entryY=1.005;entryDx=0;entryDy=0;entryPerimeter=0;" parent="1" source="u9Ba9--OEbl625sA4hoY-171" edge="1">
          <mxGeometry relative="1" as="geometry">
            <mxPoint x="726.82" y="628" as="targetPoint" />
          </mxGeometry>
        </mxCell>
        <mxCell id="u9Ba9--OEbl625sA4hoY-171" value="" style="rounded=1;whiteSpace=wrap;html=1;" parent="1" vertex="1">
          <mxGeometry x="702.14" y="673" width="50" height="90" as="geometry" />
        </mxCell>
        <mxCell id="u9Ba9--OEbl625sA4hoY-172" value="" style="rounded=1;whiteSpace=wrap;html=1;fillColor=#f8cecc;strokeColor=#b85450;" parent="1" vertex="1">
          <mxGeometry x="706.5100000000001" y="741" width="41" height="14" as="geometry" />
        </mxCell>
        <mxCell id="u9Ba9--OEbl625sA4hoY-173" value="" style="rounded=1;whiteSpace=wrap;html=1;fillColor=#fff2cc;strokeColor=#d6b656;" parent="1" vertex="1">
          <mxGeometry x="706.5100000000001" y="678" width="41" height="21" as="geometry" />
        </mxCell>
        <mxCell id="u9Ba9--OEbl625sA4hoY-174" value="" style="rounded=1;whiteSpace=wrap;html=1;fillColor=#f8cecc;strokeColor=#b85450;" parent="1" vertex="1">
          <mxGeometry x="706.64" y="722" width="41" height="14" as="geometry" />
        </mxCell>
        <mxCell id="u9Ba9--OEbl625sA4hoY-175" value="" style="rounded=1;whiteSpace=wrap;html=1;fillColor=#f8cecc;strokeColor=#b85450;" parent="1" vertex="1">
          <mxGeometry x="706.64" y="703" width="41" height="14" as="geometry" />
        </mxCell>
        <mxCell id="u9Ba9--OEbl625sA4hoY-181" value="" style="rounded=1;whiteSpace=wrap;html=1;" parent="1" vertex="1">
          <mxGeometry x="670.32" y="869" width="115" height="91" as="geometry" />
        </mxCell>
        <mxCell id="u9Ba9--OEbl625sA4hoY-182" value="" style="endArrow=none;dashed=1;html=1;dashPattern=1 3;strokeWidth=2;rounded=0;entryX=1;entryY=0.5;entryDx=0;entryDy=0;exitX=0;exitY=0.5;exitDx=0;exitDy=0;" parent="1" edge="1">
          <mxGeometry width="50" height="50" relative="1" as="geometry">
            <mxPoint x="736.57" y="924.88" as="sourcePoint" />
            <mxPoint x="713.0699999999999" y="924.88" as="targetPoint" />
          </mxGeometry>
        </mxCell>
        <mxCell id="u9Ba9--OEbl625sA4hoY-183" value="" style="endArrow=none;dashed=1;html=1;dashPattern=1 3;strokeWidth=2;rounded=0;entryX=1;entryY=0.5;entryDx=0;entryDy=0;" parent="1" edge="1">
          <mxGeometry width="50" height="50" relative="1" as="geometry">
            <mxPoint x="736.32" y="885" as="sourcePoint" />
            <mxPoint x="712.8199999999999" y="885" as="targetPoint" />
          </mxGeometry>
        </mxCell>
        <mxCell id="u9Ba9--OEbl625sA4hoY-184" value="" style="rounded=1;whiteSpace=wrap;html=1;fillColor=#d5e8d4;strokeColor=#82b366;" parent="1" vertex="1">
          <mxGeometry x="674.82" y="937" width="41" height="14" as="geometry" />
        </mxCell>
        <mxCell id="u9Ba9--OEbl625sA4hoY-185" value="" style="rounded=1;whiteSpace=wrap;html=1;fillColor=#fff2cc;strokeColor=#d6b656;" parent="1" vertex="1">
          <mxGeometry x="674.82" y="874" width="41" height="21" as="geometry" />
        </mxCell>
        <mxCell id="u9Ba9--OEbl625sA4hoY-186" value="" style="rounded=1;whiteSpace=wrap;html=1;fillColor=#d5e8d4;strokeColor=#82b366;" parent="1" vertex="1">
          <mxGeometry x="674.95" y="918" width="41" height="14" as="geometry" />
        </mxCell>
        <mxCell id="u9Ba9--OEbl625sA4hoY-187" value="" style="rounded=1;whiteSpace=wrap;html=1;fillColor=#d5e8d4;strokeColor=#82b366;" parent="1" vertex="1">
          <mxGeometry x="674.95" y="899" width="41" height="14" as="geometry" />
        </mxCell>
        <mxCell id="u9Ba9--OEbl625sA4hoY-188" value="" style="rounded=1;whiteSpace=wrap;html=1;fillColor=#d5e8d4;strokeColor=#82b366;" parent="1" vertex="1">
          <mxGeometry x="738.82" y="937" width="41" height="14" as="geometry" />
        </mxCell>
        <mxCell id="u9Ba9--OEbl625sA4hoY-189" value="" style="rounded=1;whiteSpace=wrap;html=1;fillColor=#fff2cc;strokeColor=#d6b656;" parent="1" vertex="1">
          <mxGeometry x="738.82" y="874" width="41" height="21" as="geometry" />
        </mxCell>
        <mxCell id="u9Ba9--OEbl625sA4hoY-190" value="" style="rounded=1;whiteSpace=wrap;html=1;fillColor=#d5e8d4;strokeColor=#82b366;" parent="1" vertex="1">
          <mxGeometry x="738.95" y="918" width="41" height="14" as="geometry" />
        </mxCell>
        <mxCell id="u9Ba9--OEbl625sA4hoY-191" value="" style="rounded=1;whiteSpace=wrap;html=1;fillColor=#d5e8d4;strokeColor=#82b366;" parent="1" vertex="1">
          <mxGeometry x="738.95" y="899" width="41" height="14" as="geometry" />
        </mxCell>
        <mxCell id="u9Ba9--OEbl625sA4hoY-192" value="" style="rounded=1;whiteSpace=wrap;html=1;" parent="1" vertex="1">
          <mxGeometry x="798.32" y="869" width="115" height="91" as="geometry" />
        </mxCell>
        <mxCell id="u9Ba9--OEbl625sA4hoY-193" value="" style="endArrow=none;dashed=1;html=1;dashPattern=1 3;strokeWidth=2;rounded=0;entryX=1;entryY=0.5;entryDx=0;entryDy=0;exitX=0;exitY=0.5;exitDx=0;exitDy=0;" parent="1" edge="1">
          <mxGeometry width="50" height="50" relative="1" as="geometry">
            <mxPoint x="864.57" y="924.88" as="sourcePoint" />
            <mxPoint x="841.0699999999999" y="924.88" as="targetPoint" />
          </mxGeometry>
        </mxCell>
        <mxCell id="u9Ba9--OEbl625sA4hoY-194" value="" style="endArrow=none;dashed=1;html=1;dashPattern=1 3;strokeWidth=2;rounded=0;entryX=1;entryY=0.5;entryDx=0;entryDy=0;" parent="1" edge="1">
          <mxGeometry width="50" height="50" relative="1" as="geometry">
            <mxPoint x="864.32" y="885" as="sourcePoint" />
            <mxPoint x="840.8199999999999" y="885" as="targetPoint" />
          </mxGeometry>
        </mxCell>
        <mxCell id="u9Ba9--OEbl625sA4hoY-195" value="" style="rounded=1;whiteSpace=wrap;html=1;fillColor=#d5e8d4;strokeColor=#82b366;" parent="1" vertex="1">
          <mxGeometry x="802.82" y="937" width="41" height="14" as="geometry" />
        </mxCell>
        <mxCell id="u9Ba9--OEbl625sA4hoY-196" value="" style="rounded=1;whiteSpace=wrap;html=1;fillColor=#fff2cc;strokeColor=#d6b656;" parent="1" vertex="1">
          <mxGeometry x="802.82" y="874" width="41" height="21" as="geometry" />
        </mxCell>
        <mxCell id="u9Ba9--OEbl625sA4hoY-197" value="" style="rounded=1;whiteSpace=wrap;html=1;fillColor=#d5e8d4;strokeColor=#82b366;" parent="1" vertex="1">
          <mxGeometry x="802.95" y="918" width="41" height="14" as="geometry" />
        </mxCell>
        <mxCell id="u9Ba9--OEbl625sA4hoY-198" value="" style="rounded=1;whiteSpace=wrap;html=1;fillColor=#d5e8d4;strokeColor=#82b366;" parent="1" vertex="1">
          <mxGeometry x="802.95" y="899" width="41" height="14" as="geometry" />
        </mxCell>
        <mxCell id="u9Ba9--OEbl625sA4hoY-199" value="" style="rounded=1;whiteSpace=wrap;html=1;fillColor=#d5e8d4;strokeColor=#82b366;" parent="1" vertex="1">
          <mxGeometry x="866.82" y="937" width="41" height="14" as="geometry" />
        </mxCell>
        <mxCell id="u9Ba9--OEbl625sA4hoY-200" value="" style="rounded=1;whiteSpace=wrap;html=1;fillColor=#fff2cc;strokeColor=#d6b656;" parent="1" vertex="1">
          <mxGeometry x="866.82" y="874" width="41" height="21" as="geometry" />
        </mxCell>
        <mxCell id="u9Ba9--OEbl625sA4hoY-201" value="" style="rounded=1;whiteSpace=wrap;html=1;fillColor=#d5e8d4;strokeColor=#82b366;" parent="1" vertex="1">
          <mxGeometry x="866.95" y="918" width="41" height="14" as="geometry" />
        </mxCell>
        <mxCell id="u9Ba9--OEbl625sA4hoY-202" value="" style="rounded=1;whiteSpace=wrap;html=1;fillColor=#d5e8d4;strokeColor=#82b366;" parent="1" vertex="1">
          <mxGeometry x="866.95" y="899" width="41" height="14" as="geometry" />
        </mxCell>
        <mxCell id="u9Ba9--OEbl625sA4hoY-44" style="edgeStyle=orthogonalEdgeStyle;rounded=0;orthogonalLoop=1;jettySize=auto;html=1;entryX=0;entryY=0.5;entryDx=0;entryDy=0;jumpStyle=arc;" parent="1" edge="1">
          <mxGeometry relative="1" as="geometry">
            <mxPoint x="340.9655172413793" y="871" as="sourcePoint" />
            <mxPoint x="675.5" y="825" as="targetPoint" />
            <Array as="points">
              <mxPoint x="341" y="855" />
              <mxPoint x="646" y="855" />
              <mxPoint x="646" y="825" />
            </Array>
          </mxGeometry>
        </mxCell>
        <mxCell id="u9Ba9--OEbl625sA4hoY-217" value="" style="rounded=1;whiteSpace=wrap;html=1;dashed=1;fillColor=none;strokeColor=#2ce82f;" parent="1" vertex="1">
          <mxGeometry x="368" y="648" width="273" height="332" as="geometry" />
        </mxCell>
        <mxCell id="u9Ba9--OEbl625sA4hoY-218" value="Current_span_pool" style="text;html=1;strokeColor=none;fillColor=none;align=center;verticalAlign=middle;whiteSpace=wrap;rounded=0;rotation=-90;" parent="1" vertex="1">
          <mxGeometry x="586" y="733" width="60" height="30" as="geometry" />
        </mxCell>
        <mxCell id="u9Ba9--OEbl625sA4hoY-219" value="" style="rounded=1;whiteSpace=wrap;html=1;dashed=1;fillColor=none;strokeColor=#0C46E8;" parent="1" vertex="1">
          <mxGeometry x="654.31" y="648" width="272.87" height="332" as="geometry" />
        </mxCell>
        <mxCell id="u9Ba9--OEbl625sA4hoY-220" value="Previous_span_pool" style="text;html=1;strokeColor=none;fillColor=none;align=center;verticalAlign=middle;whiteSpace=wrap;rounded=0;rotation=-90;" parent="1" vertex="1">
          <mxGeometry x="873" y="725" width="60" height="30" as="geometry" />
        </mxCell>
        <mxCell id="5LkNhxmhlVxdFBJ50Pur-1" value="" style="endArrow=classic;html=1;rounded=0;" edge="1" parent="1">
          <mxGeometry width="50" height="50" relative="1" as="geometry">
            <mxPoint x="340" y="1005" as="sourcePoint" />
            <mxPoint x="339.83" y="959" as="targetPoint" />
          </mxGeometry>
        </mxCell>
        <mxCell id="5LkNhxmhlVxdFBJ50Pur-2" value="" style="endArrow=classic;html=1;rounded=0;" edge="1" parent="1">
          <mxGeometry width="50" height="50" relative="1" as="geometry">
            <mxPoint x="402.5" y="1006" as="sourcePoint" />
            <mxPoint x="402.33" y="960" as="targetPoint" />
          </mxGeometry>
        </mxCell>
        <mxCell id="5LkNhxmhlVxdFBJ50Pur-3" value="" style="endArrow=classic;html=1;rounded=0;" edge="1" parent="1">
          <mxGeometry width="50" height="50" relative="1" as="geometry">
            <mxPoint x="466.63" y="1006" as="sourcePoint" />
            <mxPoint x="466.46" y="960" as="targetPoint" />
          </mxGeometry>
        </mxCell>
        <mxCell id="5LkNhxmhlVxdFBJ50Pur-4" value="" style="endArrow=classic;html=1;rounded=0;" edge="1" parent="1">
          <mxGeometry width="50" height="50" relative="1" as="geometry">
            <mxPoint x="530.63" y="1006" as="sourcePoint" />
            <mxPoint x="530.46" y="960" as="targetPoint" />
          </mxGeometry>
        </mxCell>
        <mxCell id="5LkNhxmhlVxdFBJ50Pur-5" value="" style="endArrow=classic;html=1;rounded=0;" edge="1" parent="1">
          <mxGeometry width="50" height="50" relative="1" as="geometry">
            <mxPoint x="594.63" y="1006" as="sourcePoint" />
            <mxPoint x="594.46" y="960" as="targetPoint" />
          </mxGeometry>
        </mxCell>
        <mxCell id="5LkNhxmhlVxdFBJ50Pur-6" value="" style="endArrow=classic;html=1;rounded=0;" edge="1" parent="1">
          <mxGeometry width="50" height="50" relative="1" as="geometry">
            <mxPoint x="695.45" y="1006" as="sourcePoint" />
            <mxPoint x="695.28" y="960" as="targetPoint" />
          </mxGeometry>
        </mxCell>
        <mxCell id="5LkNhxmhlVxdFBJ50Pur-7" value="" style="endArrow=classic;html=1;rounded=0;" edge="1" parent="1">
          <mxGeometry width="50" height="50" relative="1" as="geometry">
            <mxPoint x="759.32" y="1006" as="sourcePoint" />
            <mxPoint x="759.15" y="960" as="targetPoint" />
          </mxGeometry>
        </mxCell>
        <mxCell id="5LkNhxmhlVxdFBJ50Pur-8" value="" style="endArrow=classic;html=1;rounded=0;" edge="1" parent="1">
          <mxGeometry width="50" height="50" relative="1" as="geometry">
            <mxPoint x="823.32" y="1006" as="sourcePoint" />
            <mxPoint x="823.15" y="960" as="targetPoint" />
          </mxGeometry>
        </mxCell>
        <mxCell id="5LkNhxmhlVxdFBJ50Pur-9" value="" style="endArrow=classic;html=1;rounded=0;" edge="1" parent="1">
          <mxGeometry width="50" height="50" relative="1" as="geometry">
            <mxPoint x="887.45" y="1006" as="sourcePoint" />
            <mxPoint x="887.28" y="960" as="targetPoint" />
          </mxGeometry>
        </mxCell>
      </root>
    </mxGraphModel>
  </diagram>
</mxfile>
